<?xml version="1.0" encoding="UTF-8" standalone="no"?>
<!DOCTYPE svg PUBLIC "-//W3C//DTD SVG 1.1//EN"
 "http://www.w3.org/Graphics/SVG/1.1/DTD/svg11.dtd">
<!-- Generated by graphviz version 2.43.0 (0)
 -->
<!-- Title: TutorHubER Pages: 1 -->
<svg width="2027pt" height="765pt"
 viewBox="0.00 0.00 2026.60 764.60" xmlns="http://www.w3.org/2000/svg" xmlns:xlink="http://www.w3.org/1999/xlink">
<g id="graph0" class="graph" transform="scale(1 1) rotate(0) translate(28.8 735.8)">
<title>TutorHubER</title>
<polygon fill="white" stroke="transparent" points="-28.8,28.8 -28.8,-735.8 1997.8,-735.8 1997.8,28.8 -28.8,28.8"/>
<!-- Department -->
<g id="node1" class="node">
<title>Department</title>
<polygon fill="white" stroke="transparent" points="8,-360 8,-448 199,-448 199,-360 8,-360"/>
<polygon fill="#0f766e" stroke="transparent" points="8.5,-426 8.5,-448 199.5,-448 199.5,-426 8.5,-426"/>
<polygon fill="none" stroke="black" points="8.5,-426 8.5,-448 199.5,-448 199.5,-426 8.5,-426"/>
<text text-anchor="start" x="67" y="-435.2" font-family="Helvetica,sans-Serif" font-weight="bold" font-size="11.00" fill="white">Department</text>
<polygon fill="none" stroke="black" points="8.5,-404 8.5,-426 137.5,-426 137.5,-404 8.5,-404"/>
<text text-anchor="start" x="13.5" y="-413.2" font-family="Helvetica,sans-Serif" font-weight="bold" font-size="11.00">PK</text>
<text text-anchor="start" x="30.5" y="-413.2" font-family="Helvetica,sans-Serif" font-size="11.00"> department_id</text>
<polygon fill="none" stroke="black" points="137.5,-404 137.5,-426 199.5,-426 199.5,-404 137.5,-404"/>
<text text-anchor="start" x="142.5" y="-412.2" font-family="Helvetica,sans-Serif" font-size="11.00">INT</text>
<polygon fill="none" stroke="black" points="8.5,-382 8.5,-404 137.5,-404 137.5,-382 8.5,-382"/>
<text text-anchor="start" x="13.5" y="-390.2" font-family="Helvetica,sans-Serif" font-size="11.00">department_name</text>
<polygon fill="none" stroke="black" points="137.5,-382 137.5,-404 199.5,-404 199.5,-382 137.5,-382"/>
<text text-anchor="start" x="142.5" y="-390.2" font-family="Helvetica,sans-Serif" font-size="11.00">VARCHAR</text>
<polygon fill="none" stroke="black" points="8.5,-360 8.5,-382 137.5,-382 137.5,-360 8.5,-360"/>
<text text-anchor="start" x="13.5" y="-369.2" font-family="Helvetica,sans-Serif" font-weight="bold" font-size="11.00">UQ</text>
<text text-anchor="start" x="32.5" y="-369.2" font-family="Helvetica,sans-Serif" font-size="11.00"> department_code</text>
<polygon fill="none" stroke="black" points="137.5,-360 137.5,-382 199.5,-382 199.5,-360 137.5,-360"/>
<text text-anchor="start" x="142.5" y="-368.2" font-family="Helvetica,sans-Serif" font-size="11.00">VARCHAR</text>
</g>
<!-- User -->
<g id="node3" class="node">
<title>User</title>
<polygon fill="white" stroke="transparent" points="310.5,-162 310.5,-338 507.5,-338 507.5,-162 310.5,-162"/>
<polygon fill="#b91c1c" stroke="transparent" points="311,-316 311,-338 508,-338 508,-316 311,-316"/>
<polygon fill="none" stroke="black" points="311,-316 311,-338 508,-338 508,-316 311,-316"/>
<text text-anchor="start" x="395" y="-325.2" font-family="Helvetica,sans-Serif" font-weight="bold" font-size="11.00" fill="white">User</text>
<polygon fill="none" stroke="black" points="311,-294 311,-316 443,-316 443,-294 311,-294"/>
<text text-anchor="start" x="316" y="-303.2" font-family="Helvetica,sans-Serif" font-weight="bold" font-size="11.00">PK</text>
<text text-anchor="start" x="333" y="-303.2" font-family="Helvetica,sans-Serif" font-size="11.00"> user_id</text>
<polygon fill="none" stroke="black" points="443,-294 443,-316 508,-316 508,-294 443,-294"/>
<text text-anchor="start" x="448" y="-302.2" font-family="Helvetica,sans-Serif" font-size="11.00">INT</text>
<polygon fill="none" stroke="black" points="311,-272 311,-294 443,-294 443,-272 311,-272"/>
<text text-anchor="start" x="316" y="-280.2" font-family="Helvetica,sans-Serif" font-size="11.00">first_name, last_name</text>
<polygon fill="none" stroke="black" points="443,-272 443,-294 508,-294 508,-272 443,-272"/>
<text text-anchor="start" x="448" y="-280.2" font-family="Helvetica,sans-Serif" font-size="11.00">VARCHAR</text>
<polygon fill="none" stroke="black" points="311,-250 311,-272 443,-272 443,-250 311,-250"/>
<text text-anchor="start" x="316" y="-259.2" font-family="Helvetica,sans-Serif" font-weight="bold" font-size="11.00">UQ</text>
<text text-anchor="start" x="335" y="-259.2" font-family="Helvetica,sans-Serif" font-size="11.00"> email</text>
<polygon fill="none" stroke="black" points="443,-250 443,-272 508,-272 508,-250 443,-250"/>
<text text-anchor="start" x="448" y="-258.2" font-family="Helvetica,sans-Serif" font-size="11.00">VARCHAR</text>
<polygon fill="none" stroke="black" points="311,-228 311,-250 443,-250 443,-228 311,-228"/>
<text text-anchor="start" x="316" y="-237.2" font-family="Helvetica,sans-Serif" font-weight="bold" font-size="11.00">UQ</text>
<text text-anchor="start" x="335" y="-237.2" font-family="Helvetica,sans-Serif" font-size="11.00"> university_id</text>
<polygon fill="none" stroke="black" points="443,-228 443,-250 508,-250 508,-228 443,-228"/>
<text text-anchor="start" x="448" y="-236.2" font-family="Helvetica,sans-Serif" font-size="11.00">VARCHAR</text>
<polygon fill="none" stroke="black" points="311,-206 311,-228 443,-228 443,-206 311,-206"/>
<text text-anchor="start" x="316" y="-215.2" font-family="Helvetica,sans-Serif" font-weight="bold" font-size="11.00">FK</text>
<text text-anchor="start" x="332" y="-215.2" font-family="Helvetica,sans-Serif" font-size="11.00"> role_id</text>
<polygon fill="none" stroke="black" points="443,-206 443,-228 508,-228 508,-206 443,-206"/>
<text text-anchor="start" x="448" y="-214.2" font-family="Helvetica,sans-Serif" font-size="11.00">INT</text>
<polygon fill="none" stroke="black" points="311,-184 311,-206 443,-206 443,-184 311,-184"/>
<text text-anchor="start" x="316" y="-193.2" font-family="Helvetica,sans-Serif" font-weight="bold" font-size="11.00">FK</text>
<text text-anchor="start" x="332" y="-193.2" font-family="Helvetica,sans-Serif" font-size="11.00"> department_id</text>
<polygon fill="none" stroke="black" points="443,-184 443,-206 508,-206 508,-184 443,-184"/>
<text text-anchor="start" x="448" y="-192.2" font-family="Helvetica,sans-Serif" font-size="11.00">INT</text>
<polygon fill="none" stroke="black" points="311,-162 311,-184 443,-184 443,-162 311,-162"/>
<text text-anchor="start" x="316" y="-170.2" font-family="Helvetica,sans-Serif" font-size="11.00">is_active</text>
<polygon fill="none" stroke="black" points="443,-162 443,-184 508,-184 508,-162 443,-162"/>
<text text-anchor="start" x="448" y="-170.2" font-family="Helvetica,sans-Serif" font-size="11.00">BOOLEAN</text>
</g>
<!-- Department&#45;&gt;User -->
<g id="edge1" class="edge">
<title>Department&#45;&gt;User</title>
<path fill="none" stroke="#475569" stroke-width="1.2" d="M199.28,-355.91C229.94,-340.35 264.22,-322.96 296,-306.83"/>
<polygon fill="#475569" stroke="#475569" stroke-width="1.2" points="297.19,-308.98 302.32,-303.62 294.97,-304.61 297.19,-308.98"/>
<text text-anchor="middle" x="251" y="-333.8" font-family="Helvetica,sans-Serif" font-size="9.00">1 : N</text>
</g>
<!-- Course -->
<g id="node4" class="node">
<title>Course</title>
<polygon fill="white" stroke="transparent" points="303,-382 303,-492 515,-492 515,-382 303,-382"/>
<polygon fill="#1d4ed8" stroke="transparent" points="303,-470 303,-492 515,-492 515,-470 303,-470"/>
<polygon fill="none" stroke="black" points="303,-470 303,-492 515,-492 515,-470 303,-470"/>
<text text-anchor="start" x="387.5" y="-479.2" font-family="Helvetica,sans-Serif" font-weight="bold" font-size="11.00" fill="white">Course</text>
<polygon fill="none" stroke="black" points="303,-448 303,-470 453,-470 453,-448 303,-448"/>
<text text-anchor="start" x="308" y="-457.2" font-family="Helvetica,sans-Serif" font-weight="bold" font-size="11.00">PK</text>
<text text-anchor="start" x="325" y="-457.2" font-family="Helvetica,sans-Serif" font-size="11.00"> course_id</text>
<polygon fill="none" stroke="black" points="453,-448 453,-470 515,-470 515,-448 453,-448"/>
<text text-anchor="start" x="458" y="-456.2" font-family="Helvetica,sans-Serif" font-size="11.00">INT</text>
<polygon fill="none" stroke="black" points="303,-426 303,-448 453,-448 453,-426 303,-426"/>
<text text-anchor="start" x="308" y="-435.2" font-family="Helvetica,sans-Serif" font-weight="bold" font-size="11.00">FK</text>
<text text-anchor="start" x="324" y="-435.2" font-family="Helvetica,sans-Serif" font-size="11.00"> department_id</text>
<polygon fill="none" stroke="black" points="453,-426 453,-448 515,-448 515,-426 453,-426"/>
<text text-anchor="start" x="458" y="-434.2" font-family="Helvetica,sans-Serif" font-size="11.00">INT</text>
<polygon fill="none" stroke="black" points="303,-404 303,-426 453,-426 453,-404 303,-404"/>
<text text-anchor="start" x="308" y="-412.2" font-family="Helvetica,sans-Serif" font-size="11.00">course_code, course_title</text>
<polygon fill="none" stroke="black" points="453,-404 453,-426 515,-426 515,-404 453,-404"/>
<text text-anchor="start" x="458" y="-412.2" font-family="Helvetica,sans-Serif" font-size="11.00">VARCHAR</text>
<polygon fill="none" stroke="black" points="303,-382 303,-404 453,-404 453,-382 303,-382"/>
<text text-anchor="start" x="308" y="-390.2" font-family="Helvetica,sans-Serif" font-size="11.00">credits</text>
<polygon fill="none" stroke="black" points="453,-382 453,-404 515,-404 515,-382 453,-382"/>
<text text-anchor="start" x="458" y="-390.2" font-family="Helvetica,sans-Serif" font-size="11.00">INT</text>
</g>
<!-- Department&#45;&gt;Course -->
<g id="edge2" class="edge">
<title>Department&#45;&gt;Course</title>
<path fill="none" stroke="#475569" stroke-width="1.2" d="M207.25,-415.17C233.14,-417.99 261.16,-421.03 287.82,-423.93"/>
<polygon fill="#475569" stroke="#475569" stroke-width="1.2" points="287.71,-426.39 294.93,-424.71 288.24,-421.51 287.71,-426.39"/>
<text text-anchor="middle" x="251" y="-422.8" font-family="Helvetica,sans-Serif" font-size="9.00">1 : N</text>
</g>
<!-- Role -->
<g id="node2" class="node">
<title>Role</title>
<polygon fill="white" stroke="transparent" points="27.5,-217 27.5,-283 179.5,-283 179.5,-217 27.5,-217"/>
<polygon fill="#0f766e" stroke="transparent" points="27.5,-261 27.5,-283 179.5,-283 179.5,-261 27.5,-261"/>
<polygon fill="none" stroke="black" points="27.5,-261 27.5,-283 179.5,-283 179.5,-261 27.5,-261"/>
<text text-anchor="start" x="89.5" y="-270.2" font-family="Helvetica,sans-Serif" font-weight="bold" font-size="11.00" fill="white">Role</text>
<polygon fill="none" stroke="black" points="27.5,-239 27.5,-261 117.5,-261 117.5,-239 27.5,-239"/>
<text text-anchor="start" x="32.5" y="-248.2" font-family="Helvetica,sans-Serif" font-weight="bold" font-size="11.00">PK</text>
<text text-anchor="start" x="49.5" y="-248.2" font-family="Helvetica,sans-Serif" font-size="11.00"> role_id</text>
<polygon fill="none" stroke="black" points="117.5,-239 117.5,-261 179.5,-261 179.5,-239 117.5,-239"/>
<text text-anchor="start" x="122.5" y="-247.2" font-family="Helvetica,sans-Serif" font-size="11.00">INT</text>
<polygon fill="none" stroke="black" points="27.5,-217 27.5,-239 117.5,-239 117.5,-217 27.5,-217"/>
<text text-anchor="start" x="32.5" y="-226.2" font-family="Helvetica,sans-Serif" font-weight="bold" font-size="11.00">UQ</text>
<text text-anchor="start" x="51.5" y="-226.2" font-family="Helvetica,sans-Serif" font-size="11.00"> role_name</text>
<polygon fill="none" stroke="black" points="117.5,-217 117.5,-239 179.5,-239 179.5,-217 117.5,-217"/>
<text text-anchor="start" x="122.5" y="-225.2" font-family="Helvetica,sans-Serif" font-size="11.00">VARCHAR</text>
</g>
<!-- Role&#45;&gt;User -->
<g id="edge3" class="edge">
<title>Role&#45;&gt;User</title>
<path fill="none" stroke="#475569" stroke-width="1.2" d="M187.83,-250C220.98,-250 259.64,-250 295.23,-250"/>
<polygon fill="#475569" stroke="#475569" stroke-width="1.2" points="295.31,-252.45 302.31,-250 295.31,-247.55 295.31,-252.45"/>
<text text-anchor="middle" x="251" y="-252.8" font-family="Helvetica,sans-Serif" font-size="9.00">1 : N</text>
</g>
<!-- TutorCourse -->
<g id="node6" class="node">
<title>TutorCourse</title>
<polygon fill="white" stroke="transparent" points="709.5,-379 709.5,-489 863.5,-489 863.5,-379 709.5,-379"/>
<polygon fill="#7c3aed" stroke="transparent" points="709.5,-467 709.5,-489 863.5,-489 863.5,-467 709.5,-467"/>
<polygon fill="none" stroke="black" points="709.5,-467 709.5,-489 863.5,-489 863.5,-467 709.5,-467"/>
<text text-anchor="start" x="746.5" y="-476.2" font-family="Helvetica,sans-Serif" font-weight="bold" font-size="11.00" fill="white">Tutor_Course</text>
<polygon fill="none" stroke="black" points="709.5,-445 709.5,-467 824.5,-467 824.5,-445 709.5,-445"/>
<text text-anchor="start" x="714.5" y="-454.2" font-family="Helvetica,sans-Serif" font-weight="bold" font-size="11.00">PK</text>
<text text-anchor="start" x="731.5" y="-454.2" font-family="Helvetica,sans-Serif" font-size="11.00"> tutor_course_id</text>
<polygon fill="none" stroke="black" points="824.5,-445 824.5,-467 863.5,-467 863.5,-445 824.5,-445"/>
<text text-anchor="start" x="829.5" y="-453.2" font-family="Helvetica,sans-Serif" font-size="11.00">INT</text>
<polygon fill="none" stroke="black" points="709.5,-423 709.5,-445 824.5,-445 824.5,-423 709.5,-423"/>
<text text-anchor="start" x="714.5" y="-432.2" font-family="Helvetica,sans-Serif" font-weight="bold" font-size="11.00">FK</text>
<text text-anchor="start" x="730.5" y="-432.2" font-family="Helvetica,sans-Serif" font-size="11.00"> tutor_user_id</text>
<polygon fill="none" stroke="black" points="824.5,-423 824.5,-445 863.5,-445 863.5,-423 824.5,-423"/>
<text text-anchor="start" x="829.5" y="-431.2" font-family="Helvetica,sans-Serif" font-size="11.00">INT</text>
<polygon fill="none" stroke="black" points="709.5,-401 709.5,-423 824.5,-423 824.5,-401 709.5,-401"/>
<text text-anchor="start" x="714.5" y="-410.2" font-family="Helvetica,sans-Serif" font-weight="bold" font-size="11.00">FK</text>
<text text-anchor="start" x="730.5" y="-410.2" font-family="Helvetica,sans-Serif" font-size="11.00"> course_id</text>
<polygon fill="none" stroke="black" points="824.5,-401 824.5,-423 863.5,-423 863.5,-401 824.5,-401"/>
<text text-anchor="start" x="829.5" y="-409.2" font-family="Helvetica,sans-Serif" font-size="11.00">INT</text>
<polygon fill="none" stroke="black" points="709.5,-379 709.5,-401 824.5,-401 824.5,-379 709.5,-379"/>
<text text-anchor="start" x="714.5" y="-387.2" font-family="Helvetica,sans-Serif" font-size="11.00">assigned_since</text>
<polygon fill="none" stroke="black" points="824.5,-379 824.5,-401 863.5,-401 863.5,-379 824.5,-379"/>
<text text-anchor="start" x="829.5" y="-387.2" font-family="Helvetica,sans-Serif" font-size="11.00">DATE</text>
</g>
<!-- User&#45;&gt;TutorCourse -->
<g id="edge6" class="edge">
<title>User&#45;&gt;TutorCourse</title>
<path fill="none" stroke="#475569" stroke-width="1.2" d="M515.59,-276.13C550.44,-287.44 588.35,-302.82 620,-323 637.76,-334.32 636.41,-344.03 653,-357 666.02,-367.18 680.53,-376.95 695.03,-385.92"/>
<polygon fill="#475569" stroke="#475569" stroke-width="1.2" points="693.99,-388.15 701.24,-389.71 696.54,-383.97 693.99,-388.15"/>
<text text-anchor="middle" x="588" y="-325.8" font-family="Helvetica,sans-Serif" font-size="9.00">tutors 1 : N</text>
</g>
<!-- Slot -->
<g id="node7" class="node">
<title>Slot</title>
<polygon fill="white" stroke="transparent" points="661,-181 661,-335 912,-335 912,-181 661,-181"/>
<polygon fill="#d97706" stroke="transparent" points="661.5,-313 661.5,-335 912.5,-335 912.5,-313 661.5,-313"/>
<polygon fill="none" stroke="black" points="661.5,-313 661.5,-335 912.5,-335 912.5,-313 661.5,-313"/>
<text text-anchor="start" x="737" y="-322.2" font-family="Helvetica,sans-Serif" font-weight="bold" font-size="11.00" fill="white">Availability_Slot</text>
<polygon fill="none" stroke="black" points="661.5,-291 661.5,-313 843.5,-313 843.5,-291 661.5,-291"/>
<text text-anchor="start" x="666.5" y="-300.2" font-family="Helvetica,sans-Serif" font-weight="bold" font-size="11.00">PK</text>
<text text-anchor="start" x="683.5" y="-300.2" font-family="Helvetica,sans-Serif" font-size="11.00"> slot_id</text>
<polygon fill="none" stroke="black" points="843.5,-291 843.5,-313 912.5,-313 912.5,-291 843.5,-291"/>
<text text-anchor="start" x="848.5" y="-299.2" font-family="Helvetica,sans-Serif" font-size="11.00">INT</text>
<polygon fill="none" stroke="black" points="661.5,-269 661.5,-291 843.5,-291 843.5,-269 661.5,-269"/>
<text text-anchor="start" x="666.5" y="-278.2" font-family="Helvetica,sans-Serif" font-weight="bold" font-size="11.00">FK</text>
<text text-anchor="start" x="682.5" y="-278.2" font-family="Helvetica,sans-Serif" font-size="11.00"> provider_user_id</text>
<polygon fill="none" stroke="black" points="843.5,-269 843.5,-291 912.5,-291 912.5,-269 843.5,-269"/>
<text text-anchor="start" x="848.5" y="-277.2" font-family="Helvetica,sans-Serif" font-size="11.00">INT</text>
<polygon fill="none" stroke="black" points="661.5,-247 661.5,-269 843.5,-269 843.5,-247 661.5,-247"/>
<text text-anchor="start" x="666.5" y="-256.2" font-family="Helvetica,sans-Serif" font-weight="bold" font-size="11.00">FK</text>
<text text-anchor="start" x="682.5" y="-256.2" font-family="Helvetica,sans-Serif" font-size="11.00"> course_id</text>
<polygon fill="none" stroke="black" points="843.5,-247 843.5,-269 912.5,-269 912.5,-247 843.5,-247"/>
<text text-anchor="start" x="848.5" y="-255.2" font-family="Helvetica,sans-Serif" font-size="11.00">INT</text>
<polygon fill="none" stroke="black" points="661.5,-225 661.5,-247 843.5,-247 843.5,-225 661.5,-225"/>
<text text-anchor="start" x="666.5" y="-233.2" font-family="Helvetica,sans-Serif" font-size="11.00">slot_date, start_time, end_time</text>
<polygon fill="none" stroke="black" points="843.5,-225 843.5,-247 912.5,-247 912.5,-225 843.5,-225"/>
<text text-anchor="start" x="848.5" y="-233.2" font-family="Helvetica,sans-Serif" font-size="11.00">DATE/TIME</text>
<polygon fill="none" stroke="black" points="661.5,-203 661.5,-225 843.5,-225 843.5,-203 661.5,-203"/>
<text text-anchor="start" x="666.5" y="-211.2" font-family="Helvetica,sans-Serif" font-size="11.00">mode, location, meeting_link</text>
<polygon fill="none" stroke="black" points="843.5,-203 843.5,-225 912.5,-225 912.5,-203 843.5,-203"/>
<text text-anchor="start" x="848.5" y="-211.2" font-family="Helvetica,sans-Serif" font-size="11.00">VARCHAR</text>
<polygon fill="none" stroke="black" points="661.5,-181 661.5,-203 843.5,-203 843.5,-181 661.5,-181"/>
<text text-anchor="start" x="666.5" y="-189.2" font-family="Helvetica,sans-Serif" font-size="11.00">slot_status</text>
<polygon fill="none" stroke="black" points="843.5,-181 843.5,-203 912.5,-203 912.5,-181 843.5,-181"/>
<text text-anchor="start" x="848.5" y="-189.2" font-family="Helvetica,sans-Serif" font-size="11.00">VARCHAR</text>
</g>
<!-- User&#45;&gt;Slot -->
<g id="edge4" class="edge">
<title>User&#45;&gt;Slot</title>
<path fill="none" stroke="#475569" stroke-width="1.2" d="M515.76,-251.91C549.11,-252.54 586.1,-253.27 620,-254 628.31,-254.18 636.85,-254.37 645.46,-254.57"/>
<polygon fill="#475569" stroke="#475569" stroke-width="1.2" points="645.66,-257.02 652.71,-254.73 645.77,-252.12 645.66,-257.02"/>
<text text-anchor="middle" x="588" y="-256.8" font-family="Helvetica,sans-Serif" font-size="9.00">provides 1 : N</text>
</g>
<!-- Booking -->
<g id="node8" class="node">
<title>Booking</title>
<polygon fill="white" stroke="transparent" points="1016,-181 1016,-335 1306,-335 1306,-181 1016,-181"/>
<polygon fill="#db2777" stroke="transparent" points="1016,-313 1016,-335 1306,-335 1306,-313 1016,-313"/>
<polygon fill="none" stroke="black" points="1016,-313 1016,-335 1306,-335 1306,-313 1016,-313"/>
<text text-anchor="start" x="1136" y="-322.2" font-family="Helvetica,sans-Serif" font-weight="bold" font-size="11.00" fill="white">Booking</text>
<polygon fill="none" stroke="black" points="1016,-291 1016,-313 1185,-313 1185,-291 1016,-291"/>
<text text-anchor="start" x="1021" y="-300.2" font-family="Helvetica,sans-Serif" font-weight="bold" font-size="11.00">PK</text>
<text text-anchor="start" x="1038" y="-300.2" font-family="Helvetica,sans-Serif" font-size="11.00"> booking_id</text>
<polygon fill="none" stroke="black" points="1185,-291 1185,-313 1306,-313 1306,-291 1185,-291"/>
<text text-anchor="start" x="1190" y="-299.2" font-family="Helvetica,sans-Serif" font-size="11.00">INT</text>
<polygon fill="none" stroke="black" points="1016,-269 1016,-291 1185,-291 1185,-269 1016,-269"/>
<text text-anchor="start" x="1021" y="-278.2" font-family="Helvetica,sans-Serif" font-weight="bold" font-size="11.00">FK,UQ</text>
<text text-anchor="start" x="1060" y="-278.2" font-family="Helvetica,sans-Serif" font-size="11.00"> slot_id</text>
<polygon fill="none" stroke="black" points="1185,-269 1185,-291 1306,-291 1306,-269 1185,-269"/>
<text text-anchor="start" x="1190" y="-277.2" font-family="Helvetica,sans-Serif" font-size="11.00">INT</text>
<polygon fill="none" stroke="black" points="1016,-247 1016,-269 1185,-269 1185,-247 1016,-247"/>
<text text-anchor="start" x="1021" y="-256.2" font-family="Helvetica,sans-Serif" font-weight="bold" font-size="11.00">FK</text>
<text text-anchor="start" x="1037" y="-256.2" font-family="Helvetica,sans-Serif" font-size="11.00"> student_user_id</text>
<polygon fill="none" stroke="black" points="1185,-247 1185,-269 1306,-269 1306,-247 1185,-247"/>
<text text-anchor="start" x="1190" y="-255.2" font-family="Helvetica,sans-Serif" font-size="11.00">INT</text>
<polygon fill="none" stroke="black" points="1016,-225 1016,-247 1185,-247 1185,-225 1016,-225"/>
<text text-anchor="start" x="1021" y="-234.2" font-family="Helvetica,sans-Serif" font-weight="bold" font-size="11.00">FK</text>
<text text-anchor="start" x="1037" y="-234.2" font-family="Helvetica,sans-Serif" font-size="11.00"> course_id</text>
<polygon fill="none" stroke="black" points="1185,-225 1185,-247 1306,-247 1306,-225 1185,-225"/>
<text text-anchor="start" x="1190" y="-233.2" font-family="Helvetica,sans-Serif" font-size="11.00">INT</text>
<polygon fill="none" stroke="black" points="1016,-203 1016,-225 1185,-225 1185,-203 1016,-203"/>
<text text-anchor="start" x="1021" y="-212.2" font-family="Helvetica,sans-Serif" font-weight="bold" font-size="11.00">FK</text>
<text text-anchor="start" x="1037" y="-212.2" font-family="Helvetica,sans-Serif" font-size="11.00"> topic_id</text>
<polygon fill="none" stroke="black" points="1185,-203 1185,-225 1306,-225 1306,-203 1185,-203"/>
<text text-anchor="start" x="1190" y="-211.2" font-family="Helvetica,sans-Serif" font-size="11.00">INT</text>
<polygon fill="none" stroke="black" points="1016,-181 1016,-203 1185,-203 1185,-181 1016,-181"/>
<text text-anchor="start" x="1021" y="-189.2" font-family="Helvetica,sans-Serif" font-size="11.00">booking_status, cancelled_at</text>
<polygon fill="none" stroke="black" points="1185,-181 1185,-203 1306,-203 1306,-181 1185,-181"/>
<text text-anchor="start" x="1190" y="-189.2" font-family="Helvetica,sans-Serif" font-size="11.00">VARCHAR/DATETIME</text>
</g>
<!-- User&#45;&gt;Booking -->
<g id="edge5" class="edge">
<title>User&#45;&gt;Booking</title>
<path fill="none" stroke="#475569" stroke-width="1.2" d="M515.69,-195.43C557.33,-176.8 606.29,-158.32 653,-149 769.37,-125.78 804.02,-123.9 920,-149 947.01,-154.85 974.63,-164 1001.07,-174.57"/>
<polygon fill="#475569" stroke="#475569" stroke-width="1.2" points="1000.35,-176.93 1007.76,-177.29 1002.2,-172.39 1000.35,-176.93"/>
<text text-anchor="middle" x="786.5" y="-151.8" font-family="Helvetica,sans-Serif" font-size="9.00">books 1 : N</text>
</g>
<!-- Feedback -->
<g id="node10" class="node">
<title>Feedback</title>
<polygon fill="white" stroke="transparent" points="1782,-4 1782,-136 1961,-136 1961,-4 1782,-4"/>
<polygon fill="#2563eb" stroke="transparent" points="1782.5,-114 1782.5,-136 1961.5,-136 1961.5,-114 1782.5,-114"/>
<polygon fill="none" stroke="black" points="1782.5,-114 1782.5,-136 1961.5,-136 1961.5,-114 1782.5,-114"/>
<text text-anchor="start" x="1842.5" y="-123.2" font-family="Helvetica,sans-Serif" font-weight="bold" font-size="11.00" fill="white">Feedback</text>
<polygon fill="none" stroke="black" points="1782.5,-92 1782.5,-114 1899.5,-114 1899.5,-92 1782.5,-92"/>
<text text-anchor="start" x="1787.5" y="-101.2" font-family="Helvetica,sans-Serif" font-weight="bold" font-size="11.00">PK</text>
<text text-anchor="start" x="1804.5" y="-101.2" font-family="Helvetica,sans-Serif" font-size="11.00"> feedback_id</text>
<polygon fill="none" stroke="black" points="1899.5,-92 1899.5,-114 1961.5,-114 1961.5,-92 1899.5,-92"/>
<text text-anchor="start" x="1904.5" y="-100.2" font-family="Helvetica,sans-Serif" font-size="11.00">INT</text>
<polygon fill="none" stroke="black" points="1782.5,-70 1782.5,-92 1899.5,-92 1899.5,-70 1782.5,-70"/>
<text text-anchor="start" x="1787.5" y="-79.2" font-family="Helvetica,sans-Serif" font-weight="bold" font-size="11.00">FK,UQ</text>
<text text-anchor="start" x="1826.5" y="-79.2" font-family="Helvetica,sans-Serif" font-size="11.00"> session_id</text>
<polygon fill="none" stroke="black" points="1899.5,-70 1899.5,-92 1961.5,-92 1961.5,-70 1899.5,-70"/>
<text text-anchor="start" x="1904.5" y="-78.2" font-family="Helvetica,sans-Serif" font-size="11.00">INT</text>
<polygon fill="none" stroke="black" points="1782.5,-48 1782.5,-70 1899.5,-70 1899.5,-48 1782.5,-48"/>
<text text-anchor="start" x="1787.5" y="-57.2" font-family="Helvetica,sans-Serif" font-weight="bold" font-size="11.00">FK</text>
<text text-anchor="start" x="1803.5" y="-57.2" font-family="Helvetica,sans-Serif" font-size="11.00"> student_user_id</text>
<polygon fill="none" stroke="black" points="1899.5,-48 1899.5,-70 1961.5,-70 1961.5,-48 1899.5,-48"/>
<text text-anchor="start" x="1904.5" y="-56.2" font-family="Helvetica,sans-Serif" font-size="11.00">INT</text>
<polygon fill="none" stroke="black" points="1782.5,-26 1782.5,-48 1899.5,-48 1899.5,-26 1782.5,-26"/>
<text text-anchor="start" x="1787.5" y="-34.2" font-family="Helvetica,sans-Serif" font-size="11.00">rating (1–5)</text>
<polygon fill="none" stroke="black" points="1899.5,-26 1899.5,-48 1961.5,-48 1961.5,-26 1899.5,-26"/>
<text text-anchor="start" x="1904.5" y="-34.2" font-family="Helvetica,sans-Serif" font-size="11.00">INT</text>
<polygon fill="none" stroke="black" points="1782.5,-4 1782.5,-26 1899.5,-26 1899.5,-4 1782.5,-4"/>
<text text-anchor="start" x="1787.5" y="-12.2" font-family="Helvetica,sans-Serif" font-size="11.00">comments</text>
<polygon fill="none" stroke="black" points="1899.5,-4 1899.5,-26 1961.5,-26 1961.5,-4 1899.5,-4"/>
<text text-anchor="start" x="1904.5" y="-12.2" font-family="Helvetica,sans-Serif" font-size="11.00">VARCHAR</text>
</g>
<!-- User&#45;&gt;Feedback -->
<g id="edge7" class="edge">
<title>User&#45;&gt;Feedback</title>
<path fill="none" stroke="#475569" stroke-width="1.2" d="M509.32,-157.89C580.63,-101.47 682.05,-40 785.5,-40 785.5,-40 785.5,-40 1545,-40 1619.32,-40 1702.77,-47.85 1766.58,-55.52"/>
<polygon fill="#475569" stroke="#475569" stroke-width="1.2" points="1766.62,-57.99 1773.86,-56.4 1767.21,-53.13 1766.62,-57.99"/>
<text text-anchor="middle" x="1161" y="-42.8" font-family="Helvetica,sans-Serif" font-size="9.00">submits 1 : N</text>
</g>
<!-- Topic -->
<g id="node5" class="node">
<title>Topic</title>
<polygon fill="white" stroke="transparent" points="714.5,-615 714.5,-703 858.5,-703 858.5,-615 714.5,-615"/>
<polygon fill="#1d4ed8" stroke="transparent" points="714.5,-681 714.5,-703 858.5,-703 858.5,-681 714.5,-681"/>
<polygon fill="none" stroke="black" points="714.5,-681 714.5,-703 858.5,-703 858.5,-681 714.5,-681"/>
<text text-anchor="start" x="770.5" y="-690.2" font-family="Helvetica,sans-Serif" font-weight="bold" font-size="11.00" fill="white">Topic</text>
<polygon fill="none" stroke="black" points="714.5,-659 714.5,-681 796.5,-681 796.5,-659 714.5,-659"/>
<text text-anchor="start" x="719.5" y="-668.2" font-family="Helvetica,sans-Serif" font-weight="bold" font-size="11.00">PK</text>
<text text-anchor="start" x="736.5" y="-668.2" font-family="Helvetica,sans-Serif" font-size="11.00"> topic_id</text>
<polygon fill="none" stroke="black" points="796.5,-659 796.5,-681 858.5,-681 858.5,-659 796.5,-659"/>
<text text-anchor="start" x="801.5" y="-667.2" font-family="Helvetica,sans-Serif" font-size="11.00">INT</text>
<polygon fill="none" stroke="black" points="714.5,-637 714.5,-659 796.5,-659 796.5,-637 714.5,-637"/>
<text text-anchor="start" x="719.5" y="-646.2" font-family="Helvetica,sans-Serif" font-weight="bold" font-size="11.00">FK</text>
<text text-anchor="start" x="735.5" y="-646.2" font-family="Helvetica,sans-Serif" font-size="11.00"> course_id</text>
<polygon fill="none" stroke="black" points="796.5,-637 796.5,-659 858.5,-659 858.5,-637 796.5,-637"/>
<text text-anchor="start" x="801.5" y="-645.2" font-family="Helvetica,sans-Serif" font-size="11.00">INT</text>
<polygon fill="none" stroke="black" points="714.5,-615 714.5,-637 796.5,-637 796.5,-615 714.5,-615"/>
<text text-anchor="start" x="719.5" y="-623.2" font-family="Helvetica,sans-Serif" font-size="11.00">topic_name</text>
<polygon fill="none" stroke="black" points="796.5,-615 796.5,-637 858.5,-637 858.5,-615 796.5,-615"/>
<text text-anchor="start" x="801.5" y="-623.2" font-family="Helvetica,sans-Serif" font-size="11.00">VARCHAR</text>
</g>
<!-- Course&#45;&gt;Topic -->
<g id="edge8" class="edge">
<title>Course&#45;&gt;Topic</title>
<path fill="none" stroke="#475569" stroke-width="1.2" d="M452.32,-496.03C478.72,-528.91 515.35,-568.12 556,-593 599.56,-619.66 654.33,-635.94 699.44,-645.67"/>
<polygon fill="#475569" stroke="#475569" stroke-width="1.2" points="698.96,-648.07 706.31,-647.11 699.97,-643.27 698.96,-648.07"/>
<text text-anchor="middle" x="588" y="-623.8" font-family="Helvetica,sans-Serif" font-size="9.00">1 : N</text>
</g>
<!-- Course&#45;&gt;TutorCourse -->
<g id="edge9" class="edge">
<title>Course&#45;&gt;TutorCourse</title>
<path fill="none" stroke="#475569" stroke-width="1.2" d="M523.17,-436.1C577.83,-435.66 642.55,-435.14 694.03,-434.73"/>
<polygon fill="#475569" stroke="#475569" stroke-width="1.2" points="694.22,-437.18 701.2,-434.67 694.18,-432.28 694.22,-437.18"/>
<text text-anchor="middle" x="588" y="-437.8" font-family="Helvetica,sans-Serif" font-size="9.00">1 : N</text>
</g>
<!-- Course&#45;&gt;Slot -->
<g id="edge10" class="edge">
<title>Course&#45;&gt;Slot</title>
<path fill="none" stroke="#475569" stroke-width="1.2" d="M523.17,-383.05C561.91,-364.58 605.71,-343.7 646.27,-324.37"/>
<polygon fill="#475569" stroke="#475569" stroke-width="1.2" points="647.48,-326.51 652.75,-321.28 645.38,-322.08 647.48,-326.51"/>
<text text-anchor="middle" x="588" y="-365.8" font-family="Helvetica,sans-Serif" font-size="9.00">1 : N</text>
</g>
<!-- Course&#45;&gt;Booking -->
<g id="edge11" class="edge">
<title>Course&#45;&gt;Booking</title>
<path fill="none" stroke="#475569" stroke-width="1.2" d="M523.2,-487C629.66,-526.38 791.46,-566.24 920,-511 998.25,-477.37 1062.97,-404.31 1105.4,-345.31"/>
<polygon fill="#475569" stroke="#475569" stroke-width="1.2" points="1107.63,-346.4 1109.69,-339.28 1103.64,-343.56 1107.63,-346.4"/>
<text text-anchor="middle" x="786.5" y="-540.8" font-family="Helvetica,sans-Serif" font-size="9.00">1 : N</text>
</g>
<!-- Topic&#45;&gt;Booking -->
<g id="edge12" class="edge">
<title>Topic&#45;&gt;Booking</title>
<path fill="none" stroke="#475569" stroke-width="1.2" d="M866.51,-644.7C902.72,-634.97 944.31,-618.97 975,-593 1052.29,-527.59 1103.12,-421.33 1131.6,-346.05"/>
<polygon fill="#475569" stroke="#475569" stroke-width="1.2" points="1133.96,-346.73 1134.12,-339.32 1129.37,-345.02 1133.96,-346.73"/>
<text text-anchor="middle" x="964" y="-610.8" font-family="Helvetica,sans-Serif" font-size="9.00">0 : N</text>
</g>
<!-- Slot&#45;&gt;Booking -->
<g id="edge13" class="edge">
<title>Slot&#45;&gt;Booking</title>
<path fill="none" stroke="#b91c1c" stroke-width="2" d="M920.14,-258C948.57,-258 978.82,-258 1007.91,-258"/>
<text text-anchor="middle" x="964" y="-260.8" font-family="Helvetica,sans-Serif" font-size="9.00">1 : 1</text>
</g>
<!-- Session -->
<g id="node9" class="node">
<title>Session</title>
<polygon fill="white" stroke="transparent" points="1410,-145 1410,-277 1678,-277 1678,-145 1410,-145"/>
<polygon fill="#059669" stroke="transparent" points="1410,-255 1410,-277 1678,-277 1678,-255 1410,-255"/>
<polygon fill="none" stroke="black" points="1410,-255 1410,-277 1678,-277 1678,-255 1410,-255"/>
<text text-anchor="start" x="1495.5" y="-264.2" font-family="Helvetica,sans-Serif" font-weight="bold" font-size="11.00" fill="white">Session_Record</text>
<polygon fill="none" stroke="black" points="1410,-233 1410,-255 1613,-255 1613,-233 1410,-233"/>
<text text-anchor="start" x="1415" y="-242.2" font-family="Helvetica,sans-Serif" font-weight="bold" font-size="11.00">PK</text>
<text text-anchor="start" x="1432" y="-242.2" font-family="Helvetica,sans-Serif" font-size="11.00"> session_id</text>
<polygon fill="none" stroke="black" points="1613,-233 1613,-255 1678,-255 1678,-233 1613,-233"/>
<text text-anchor="start" x="1618" y="-241.2" font-family="Helvetica,sans-Serif" font-size="11.00">INT</text>
<polygon fill="none" stroke="black" points="1410,-211 1410,-233 1613,-233 1613,-211 1410,-211"/>
<text text-anchor="start" x="1415" y="-220.2" font-family="Helvetica,sans-Serif" font-weight="bold" font-size="11.00">FK,UQ</text>
<text text-anchor="start" x="1454" y="-220.2" font-family="Helvetica,sans-Serif" font-size="11.00"> booking_id</text>
<polygon fill="none" stroke="black" points="1613,-211 1613,-233 1678,-233 1678,-211 1613,-211"/>
<text text-anchor="start" x="1618" y="-219.2" font-family="Helvetica,sans-Serif" font-size="11.00">INT</text>
<polygon fill="none" stroke="black" points="1410,-189 1410,-211 1613,-211 1613,-189 1410,-189"/>
<text text-anchor="start" x="1415" y="-197.2" font-family="Helvetica,sans-Serif" font-size="11.00">actual_start_time, actual_end_time</text>
<polygon fill="none" stroke="black" points="1613,-189 1613,-211 1678,-211 1678,-189 1613,-189"/>
<text text-anchor="start" x="1618" y="-197.2" font-family="Helvetica,sans-Serif" font-size="11.00">DATETIME</text>
<polygon fill="none" stroke="black" points="1410,-167 1410,-189 1613,-189 1613,-167 1410,-167"/>
<text text-anchor="start" x="1415" y="-175.2" font-family="Helvetica,sans-Serif" font-size="11.00">duration_minutes</text>
<polygon fill="none" stroke="black" points="1613,-167 1613,-189 1678,-189 1678,-167 1613,-167"/>
<text text-anchor="start" x="1618" y="-175.2" font-family="Helvetica,sans-Serif" font-size="11.00">INT</text>
<polygon fill="none" stroke="black" points="1410,-145 1410,-167 1613,-167 1613,-145 1410,-145"/>
<text text-anchor="start" x="1415" y="-153.2" font-family="Helvetica,sans-Serif" font-size="11.00">attendance_status, session_status</text>
<polygon fill="none" stroke="black" points="1613,-145 1613,-167 1678,-167 1678,-145 1613,-145"/>
<text text-anchor="start" x="1618" y="-153.2" font-family="Helvetica,sans-Serif" font-size="11.00">VARCHAR</text>
</g>
<!-- Booking&#45;&gt;Session -->
<g id="edge14" class="edge">
<title>Booking&#45;&gt;Session</title>
<path fill="none" stroke="#b91c1c" stroke-width="2" d="M1314.22,-239.22C1343.14,-235.65 1373.28,-231.94 1401.83,-228.41"/>
<text text-anchor="middle" x="1358" y="-237.8" font-family="Helvetica,sans-Serif" font-size="9.00">1 : 1</text>
</g>
<!-- Session&#45;&gt;Feedback -->
<g id="edge15" class="edge">
<title>Session&#45;&gt;Feedback</title>
<path fill="none" stroke="#b91c1c" stroke-width="2" d="M1686.35,-149.77C1715.86,-136.99 1746.32,-123.79 1773.77,-111.9"/>
<text text-anchor="middle" x="1730" y="-135.8" font-family="Helvetica,sans-Serif" font-size="9.00">1 : 1</text>
</g>
</g>
</svg>
